<svg xmlns="http://www.w3.org/2000/svg" viewBox="0 0 1200 800" width="1200" height="800">
  <defs>
    <style>
      .bg { fill: #f0f4f8; }
      .fill-white { fill: #ffffff; stroke: #374151; stroke-width: 1; }
      .fill-dark { fill: #1f2937; }
      .annotation { fill: #6366f1; font-family: monospace; font-size: 10px; }
      .annotation-box { fill: #ffffff; stroke: #6366f1; stroke-width: 2; }
      .label { fill: #374151; font-family: monospace; font-size: 11px; }
      .heading { fill: #1f2937; font-family: system-ui, sans-serif; font-size: 14px; font-weight: bold; }
      .text-sm { fill: #6b7280; font-family: system-ui, sans-serif; font-size: 10px; }
      .text-md { fill: #374151; font-family: system-ui, sans-serif; font-size: 12px; }
      .leader { stroke: #6366f1; stroke-width: 1; stroke-dasharray: 2,2; }
      .required { fill: #ef4444; }
    </style>
  </defs>

  <!-- Background -->
  <rect class="bg" width="1200" height="800"/>

  <!-- Title -->
  <text x="600" y="25" text-anchor="middle" class="annotation" font-size="14" font-weight="bold">05 - EMPLOYER FEATURES: POST JOB</text>
  <text x="600" y="40" text-anchor="middle" class="annotation">Form for creating job postings with live preview</text>

  <!-- ============================================ -->
  <!-- HEADER -->
  <!-- ============================================ -->
  <rect x="40" y="60" width="1120" height="50" class="fill-dark"/>
  <text x="60" y="90" fill="white" class="text-md">← Back to Dashboard</text>
  <text x="600" y="90" text-anchor="middle" fill="white" class="heading">Post New Job</text>
  <rect x="1000" y="70" width="70" height="30" rx="4" fill="#374151" stroke="#9ca3af"/>
  <text x="1035" y="90" text-anchor="middle" fill="#9ca3af" class="text-md">Draft</text>
  <rect x="1080" y="70" width="70" height="30" rx="4" fill="#22c55e"/>
  <text x="1115" y="90" text-anchor="middle" fill="white" class="text-md">Post</text>

  <!-- ============================================ -->
  <!-- FORM SECTION -->
  <!-- ============================================ -->
  <rect x="40" y="110" width="580" height="620" fill="white" stroke="#374151"/>

  <!-- Job Title -->
  <g transform="translate(60, 130)">
    <text x="0" y="0" class="label">JOB TITLE <tspan class="required">*</tspan></text>
    <rect x="0" y="10" width="540" height="44" rx="6" class="fill-white"/>
    <text x="15" y="38" class="text-md">CNA - Night Shift</text>
  </g>

  <!-- Job Description -->
  <g transform="translate(60, 200)">
    <text x="0" y="0" class="label">DESCRIPTION <tspan class="required">*</tspan></text>
    <rect x="0" y="10" width="540" height="140" rx="6" class="fill-white"/>

    <!-- Rich text toolbar -->
    <rect x="5" y="15" width="530" height="28" fill="#f9fafb"/>
    <text x="20" y="33" class="text-md" font-weight="bold">B</text>
    <text x="45" y="33" class="text-md" font-style="italic">I</text>
    <text x="70" y="33" class="text-md" text-decoration="underline">U</text>
    <text x="100" y="33" class="text-sm">• List</text>

    <text x="15" y="65" class="text-md">We are seeking a compassionate CNA for our</text>
    <text x="15" y="85" class="text-md">overnight shift. Responsibilities include:</text>
    <text x="15" y="105" class="text-md">• Assisting residents with daily activities</text>
    <text x="15" y="125" class="text-md">• Monitoring vital signs</text>
  </g>

  <!-- Shift Times -->
  <g transform="translate(60, 360)">
    <text x="0" y="0" class="label">SHIFT TIMES <tspan class="required">*</tspan></text>

    <text x="0" y="30" class="text-sm" fill="#6b7280">Start Time</text>
    <rect x="0" y="40" width="120" height="40" rx="6" class="fill-white"/>
    <text x="15" y="65" class="text-md">11:00 PM</text>

    <text x="140" y="30" class="text-sm" fill="#6b7280">End Time</text>
    <rect x="140" y="40" width="120" height="40" rx="6" class="fill-white"/>
    <text x="155" y="65" class="text-md">7:00 AM</text>

    <text x="280" y="30" class="text-sm" fill="#6b7280">Days</text>
    <rect x="280" y="40" width="260" height="40" rx="6" class="fill-white"/>
    <text x="295" y="65" class="text-md">Mon, Tue, Wed, Thu, Fri</text>
  </g>

  <!-- Pay Rate -->
  <g transform="translate(60, 440)">
    <text x="0" y="0" class="label">PAY RATE</text>

    <rect x="0" y="15" width="100" height="40" rx="6" class="fill-white"/>
    <text x="15" y="40" class="text-md">$15.00</text>

    <rect x="110" y="15" width="100" height="40" rx="6" class="fill-white"/>
    <text x="125" y="40" class="text-md">per hour</text>
    <polygon points="185,33 195,33 190,43" fill="#6b7280"/>
  </g>

  <!-- Work Location -->
  <g transform="translate(60, 510)">
    <text x="0" y="0" class="label">WORK LOCATION</text>

    <!-- Toggle -->
    <rect x="0" y="20" width="260" height="40" rx="6" fill="#ede9fe" stroke="#6366f1"/>
    <circle cx="25" cy="40" r="8" fill="#6366f1"/>
    <text x="45" y="45" class="text-md" fill="#4f46e5">Use company address</text>

    <rect x="270" y="20" width="270" height="40" rx="6" class="fill-white"/>
    <circle cx="295" cy="40" r="8" stroke="#9ca3af" fill="none" stroke-width="2"/>
    <text x="315" y="45" class="text-md" fill="#6b7280">Different location</text>
  </g>

  <!-- Company address display -->
  <g transform="translate(60, 570)">
    <rect x="0" y="0" width="540" height="50" rx="6" fill="#f9fafb" stroke="#e5e7eb"/>
    <circle cx="25" cy="25" r="12" fill="#22c55e"/>
    <polygon points="25,18 20,25 30,25" fill="white"/>
    <rect x="22" y="24" width="6" height="6" fill="white"/>
    <text x="50" y="22" class="text-md">123 Main Street</text>
    <text x="50" y="40" class="text-sm" fill="#6b7280">Cleveland, TN 37311</text>
  </g>

  <!-- Requirements (optional) -->
  <g transform="translate(60, 640)">
    <text x="0" y="0" class="label">REQUIREMENTS (optional)</text>
    <rect x="0" y="10" width="540" height="60" rx="6" class="fill-white"/>
    <text x="15" y="35" class="text-md">CNA certification required. Experience with</text>
    <text x="15" y="55" class="text-md">elderly care preferred.</text>
  </g>

  <!-- ============================================ -->
  <!-- PREVIEW SECTION -->
  <!-- ============================================ -->
  <rect x="640" y="110" width="520" height="620" fill="#f9fafb" stroke="#374151"/>

  <text x="660" y="145" class="label">PREVIEW - HOW JOB SEEKERS WILL SEE IT</text>

  <!-- Preview card -->
  <rect x="660" y="165" width="480" height="400" rx="8" fill="white" stroke="#374151"/>

  <!-- Company header in preview -->
  <rect x="660" y="165" width="480" height="60" rx="8" ry="8" fill="#f3f4f6"/>
  <rect x="680" y="180" width="40" height="40" rx="6" fill="#e5e7eb" stroke="#d1d5db"/>
  <text x="700" y="205" text-anchor="middle" class="text-md" fill="#9ca3af">LC</text>
  <text x="735" y="200" class="heading">Life Care Centers</text>
  <text x="735" y="218" class="text-sm" fill="#6b7280">Healthcare - Cleveland, TN</text>

  <!-- Job details in preview -->
  <text x="680" y="255" class="heading" font-size="18">CNA - Night Shift</text>

  <rect x="680" y="270" width="60" height="22" rx="4" fill="#dcfce7" stroke="#22c55e"/>
  <text x="710" y="285" text-anchor="middle" class="text-sm">2.1 mi</text>

  <rect x="750" y="270" width="80" height="22" rx="4" fill="#dbeafe" stroke="#3b82f6"/>
  <text x="790" y="285" text-anchor="middle" class="text-sm">$15/hour</text>

  <rect x="840" y="270" width="100" height="22" rx="4" fill="#f3f4f6" stroke="#9ca3af"/>
  <text x="890" y="285" text-anchor="middle" class="text-sm">Night Shift</text>

  <!-- Description preview -->
  <text x="680" y="320" class="text-md">We are seeking a compassionate CNA for our</text>
  <text x="680" y="338" class="text-md">overnight shift. Responsibilities include:</text>
  <text x="680" y="360" class="text-md">• Assisting residents with daily activities</text>
  <text x="680" y="380" class="text-md">• Monitoring vital signs</text>

  <!-- Shift times in preview -->
  <text x="680" y="420" class="label">SHIFT</text>
  <text x="680" y="440" class="text-md">11:00 PM - 7:00 AM</text>
  <text x="680" y="458" class="text-sm" fill="#6b7280">Mon, Tue, Wed, Thu, Fri</text>

  <!-- Requirements in preview -->
  <text x="680" y="495" class="label">REQUIREMENTS</text>
  <text x="680" y="515" class="text-md">CNA certification required. Experience with</text>
  <text x="680" y="533" class="text-md">elderly care preferred.</text>

  <!-- Interested button (preview) -->
  <rect x="680" y="555" width="120" height="36" rx="6" fill="#6366f1"/>
  <text x="740" y="578" text-anchor="middle" fill="white" class="text-md">I'm Interested</text>

  <!-- Preview note -->
  <rect x="660" y="590" width="480" height="60" rx="6" fill="#fef3c7" stroke="#f59e0b"/>
  <text x="900" y="615" text-anchor="middle" class="text-sm" fill="#92400e">This is a preview. Your job will appear in search results</text>
  <text x="900" y="633" text-anchor="middle" class="text-sm" fill="#92400e">and on your company profile after posting.</text>

  <!-- Post actions (repeated at bottom) -->
  <rect x="660" y="665" width="200" height="44" rx="6" fill="white" stroke="#374151"/>
  <text x="760" y="692" text-anchor="middle" class="text-md">Save as Draft</text>

  <rect x="880" y="665" width="260" height="44" rx="6" fill="#22c55e"/>
  <text x="1010" y="692" text-anchor="middle" fill="white" class="heading">Post Job Now</text>

  <!-- ============================================ -->
  <!-- ANNOTATIONS -->
  <!-- ============================================ -->

  <!-- Form annotation -->
  <rect x="40" y="745" width="280" height="50" rx="4" class="annotation-box"/>
  <text x="180" y="765" text-anchor="middle" class="annotation" font-weight="bold">FORM REQUIREMENTS</text>
  <text x="50" y="785" class="annotation">Title, description, shift times required (FR-004)</text>

  <!-- Location annotation -->
  <rect x="340" y="745" width="280" height="50" rx="4" class="annotation-box"/>
  <text x="480" y="765" text-anchor="middle" class="annotation" font-weight="bold">WORK LOCATION</text>
  <text x="350" y="785" class="annotation">Can differ from company HQ (FR-005)</text>

  <!-- Preview annotation -->
  <rect x="640" y="745" width="280" height="50" rx="4" class="annotation-box"/>
  <text x="780" y="765" text-anchor="middle" class="annotation" font-weight="bold">LIVE PREVIEW</text>
  <text x="650" y="785" class="annotation">Shows distance from user's home (FR-006)</text>

</svg>