<svg xmlns="http://www.w3.org/2000/svg" viewBox="0 0 1200 800" width="1200" height="800">
  <defs>
    <style>
      .bg { fill: #f0f4f8; }
      .overlay { fill: rgba(0,0,0,0.5); }
      .fill-white { fill: #ffffff; stroke: #374151; stroke-width: 1; }
      .fill-light { fill: #e5e7eb; stroke: #374151; stroke-width: 1; }
      .annotation { fill: #6366f1; font-family: monospace; font-size: 10px; }
      .annotation-box { fill: #6366f1; opacity: 0.1; stroke: #6366f1; stroke-width: 1; }
      .label { fill: #374151; font-family: monospace; font-size: 11px; }
      .heading { fill: #1f2937; font-family: system-ui, sans-serif; font-size: 14px; font-weight: bold; }
      .text-sm { fill: #6b7280; font-family: system-ui, sans-serif; font-size: 10px; }
      .text-md { fill: #374151; font-family: system-ui, sans-serif; font-size: 12px; }
      .leader { stroke: #6366f1; stroke-width: 1; stroke-dasharray: 2,2; }
      .map-bg { fill: #dbeafe; stroke: #374151; stroke-width: 1; }
      .required { fill: #ef4444; }
    </style>
  </defs>

  <!-- Background (dimmed app) -->
  <rect class="bg" width="1200" height="800"/>

  <!-- Title -->
  <text x="600" y="25" text-anchor="middle" class="annotation" font-size="14" font-weight="bold">01 - COMPANY TRACKING: ADD COMPANY MODAL</text>
  <text x="600" y="40" text-anchor="middle" class="annotation">Modal overlay for adding new company to tracking list</text>

  <!-- Dimmed background showing app behind -->
  <rect x="40" y="60" width="1120" height="680" class="overlay" rx="8"/>

  <!-- ============================================ -->
  <!-- MODAL -->
  <!-- ============================================ -->
  <rect x="280" y="90" width="640" height="620" rx="12" fill="white" stroke="#374151" stroke-width="2"/>

  <!-- Modal Header -->
  <rect x="280" y="90" width="640" height="56" rx="12" ry="12" fill="#f9fafb"/>
  <text x="310" y="125" class="heading" font-size="18">Add New Company</text>
  <text x="880" y="125" fill="#6b7280" font-size="20" style="cursor:pointer">×</text>

  <!-- ============================================ -->
  <!-- FORM FIELDS -->
  <!-- ============================================ -->

  <!-- Company Name -->
  <g transform="translate(310, 165)">
    <text x="0" y="0" class="label">COMPANY NAME <tspan class="required">*</tspan></text>
    <rect x="0" y="10" width="580" height="40" rx="6" class="fill-white"/>
    <text x="15" y="35" class="text-md" fill="#9ca3af">Enter company name...</text>
  </g>

  <!-- Address -->
  <g transform="translate(310, 235)">
    <text x="0" y="0" class="label">STREET ADDRESS <tspan class="required">*</tspan></text>
    <rect x="0" y="10" width="580" height="40" rx="6" class="fill-white"/>
    <text x="15" y="35" class="text-md">123 Industrial Parkway</text>
  </g>

  <!-- City, State, ZIP row -->
  <g transform="translate(310, 305)">
    <text x="0" y="0" class="label">CITY <tspan class="required">*</tspan></text>
    <rect x="0" y="10" width="240" height="40" rx="6" class="fill-white"/>
    <text x="15" y="35" class="text-md">Cleveland</text>

    <text x="260" y="0" class="label">STATE</text>
    <rect x="260" y="10" width="100" height="40" rx="6" class="fill-white"/>
    <text x="275" y="35" class="text-md">TN</text>
    <polygon points="340,28 350,28 345,38" fill="#6b7280"/>

    <text x="380" y="0" class="label">ZIP CODE</text>
    <rect x="380" y="10" width="120" height="40" rx="6" class="fill-white"/>
    <text x="395" y="35" class="text-md">37311</text>

    <rect x="510" y="10" width="70" height="40" rx="6" fill="#6366f1"/>
    <text x="545" y="35" text-anchor="middle" fill="white" class="text-md">Locate</text>
  </g>

  <!-- Industry Dropdown -->
  <g transform="translate(310, 375)">
    <text x="0" y="0" class="label">INDUSTRY</text>
    <rect x="0" y="10" width="280" height="40" rx="6" class="fill-white"/>
    <text x="15" y="35" class="text-md">Healthcare</text>
    <polygon points="250,28 260,28 255,38" fill="#6b7280"/>

    <!-- Company Size -->
    <text x="300" y="0" class="label">COMPANY SIZE</text>
    <rect x="300" y="10" width="280" height="40" rx="6" class="fill-white"/>
    <text x="315" y="35" class="text-md">100-500 employees</text>
    <polygon points="550,28 560,28 555,38" fill="#6b7280"/>
  </g>

  <!-- Map Preview -->
  <g transform="translate(310, 445)">
    <text x="0" y="0" class="label">LOCATION PREVIEW</text>
    <rect x="0" y="10" width="280" height="160" rx="6" class="map-bg"/>

    <!-- Map grid -->
    <g stroke="#93c5fd" stroke-width="0.5" opacity="0.5">
      <line x1="0" y1="60" x2="280" y2="60"/>
      <line x1="0" y1="110" x2="280" y2="110"/>
      <line x1="70" y1="10" x2="70" y2="170"/>
      <line x1="140" y1="10" x2="140" y2="170"/>
      <line x1="210" y1="10" x2="210" y2="170"/>
    </g>

    <!-- Location pin -->
    <circle cx="140" cy="90" r="16" fill="#6366f1"/>
    <circle cx="140" cy="90" r="6" fill="white"/>
    <path d="M 140,106 L 140,120" stroke="#6366f1" stroke-width="3"/>

    <text x="140" y="155" text-anchor="middle" class="text-sm">35.1595° N, 84.8766° W</text>

    <!-- Initial Status -->
    <text x="300" y="0" class="label">INITIAL STATUS</text>
    <g transform="translate(300, 15)">
      <rect x="0" y="0" width="140" height="32" rx="16" fill="#f3f4f6" stroke="#374151"/>
      <circle cx="18" cy="16" r="8" fill="#6366f1"/>
      <text x="35" y="21" class="text-sm">Researching</text>
    </g>

    <!-- Priority -->
    <text x="300" y="65" class="label">PRIORITY</text>
    <g transform="translate(300, 80)">
      <rect x="0" y="0" width="80" height="36" rx="4" fill="#fee2e2" stroke="#ef4444"/>
      <circle cx="20" cy="18" r="5" fill="#ef4444"/>
      <circle cx="35" cy="18" r="5" fill="#ef4444"/>
      <circle cx="50" cy="18" r="5" fill="#ef4444"/>
      <text x="63" y="23" class="text-sm" fill="#ef4444">H</text>
    </g>
    <g transform="translate(390, 80)">
      <rect x="0" y="0" width="80" height="36" rx="4" class="fill-white"/>
      <circle cx="20" cy="18" r="5" fill="#eab308"/>
      <circle cx="35" cy="18" r="5" fill="#eab308"/>
      <text x="53" y="23" class="text-sm">M</text>
    </g>
    <g transform="translate(480, 80)">
      <rect x="0" y="0" width="70" height="36" rx="4" class="fill-white"/>
      <circle cx="20" cy="18" r="5" fill="#22c55e"/>
      <text x="40" y="23" class="text-sm">L</text>
    </g>

    <!-- Notes -->
    <text x="300" y="140" class="label">NOTES (optional)</text>
    <rect x="300" y="155" width="280" height="50" rx="6" class="fill-white"/>
    <text x="315" y="180" class="text-sm" fill="#9ca3af">Add notes about this company...</text>
  </g>

  <!-- ============================================ -->
  <!-- FORM ACTIONS -->
  <!-- ============================================ -->
  <line x1="310" y1="640" x2="890" y2="640" stroke="#e5e7eb"/>

  <rect x="680" y="660" width="90" height="36" rx="6" class="fill-white"/>
  <text x="725" y="683" text-anchor="middle" class="text-md">Cancel</text>

  <rect x="780" y="660" width="110" height="36" rx="6" fill="#6366f1"/>
  <text x="835" y="683" text-anchor="middle" fill="white" class="text-md">Add Company</text>

  <!-- ============================================ -->
  <!-- ANNOTATIONS -->
  <!-- ============================================ -->

  <!-- Required field annotation -->
  <rect x="40" y="100" width="200" height="50" rx="4" class="annotation-box"/>
  <text x="140" y="120" text-anchor="middle" class="annotation" font-weight="bold">REQUIRED FIELDS</text>
  <text x="50" y="135" class="annotation">Red asterisk (*) = required</text>
  <path d="M 240,125 L 290,165" class="leader"/>

  <!-- Geocoding annotation -->
  <rect x="40" y="290" width="200" height="65" rx="4" class="annotation-box"/>
  <text x="140" y="310" text-anchor="middle" class="annotation" font-weight="bold">GEOCODING</text>
  <text x="50" y="325" class="annotation">- Click "Locate" to geocode</text>
  <text x="50" y="340" class="annotation">- Auto-geocodes on blur</text>
  <text x="50" y="355" class="annotation">- Shows coords on map</text>
  <path d="M 240,320 L 280,360" class="leader"/>

  <!-- Industry dropdown annotation -->
  <rect x="940" y="200" width="200" height="65" rx="4" class="annotation-box"/>
  <text x="1040" y="220" text-anchor="middle" class="annotation" font-weight="bold">INDUSTRY OPTIONS</text>
  <text x="950" y="235" class="annotation">Healthcare, Manufacturing,</text>
  <text x="950" y="250" class="annotation">Retail, Hospitality, Other</text>
  <path d="M 940,230 L 905,390" class="leader"/>

  <!-- Priority annotation -->
  <rect x="940" y="380" width="200" height="65" rx="4" class="annotation-box"/>
  <text x="1040" y="400" text-anchor="middle" class="annotation" font-weight="bold">PRIORITY LEVELS</text>
  <text x="950" y="415" class="annotation">High (3 dots) - Apply soon</text>
  <text x="950" y="430" class="annotation">Medium (2) - Interested</text>
  <text x="950" y="445" class="annotation">Low (1) - Maybe later</text>
  <path d="M 940,420 L 895,520" class="leader"/>

  <!-- Modal behavior annotation -->
  <rect x="940" y="550" width="200" height="80" rx="4" class="annotation-box"/>
  <text x="1040" y="570" text-anchor="middle" class="annotation" font-weight="bold">MODAL BEHAVIOR</text>
  <text x="950" y="585" class="annotation">- ESC or X to close</text>
  <text x="950" y="600" class="annotation">- Click outside to cancel</text>
  <text x="950" y="615" class="annotation">- Form validates on submit</text>
  <text x="950" y="630" class="annotation">- Shows error states inline</text>

  <!-- Form validation example -->
  <rect x="40" y="450" width="200" height="80" rx="4" class="annotation-box"/>
  <text x="140" y="470" text-anchor="middle" class="annotation" font-weight="bold">VALIDATION</text>
  <text x="50" y="490" class="annotation">On submit, validate:</text>
  <text x="50" y="505" class="annotation">- Company name required</text>
  <text x="50" y="520" class="annotation">- Valid address geocodes</text>

</svg>