<svg xmlns="http://www.w3.org/2000/svg" viewBox="0 0 1200 800" width="1200" height="800">
  <defs>
    <style>
      .bg { fill: #f0f4f8; }
      .fill-white { fill: #ffffff; stroke: #374151; stroke-width: 1; }
      .fill-light { fill: #e5e7eb; stroke: #374151; stroke-width: 1; }
      .fill-dark { fill: #1f2937; }
      .annotation { fill: #6366f1; font-family: monospace; font-size: 10px; }
      .annotation-box { fill: #ffffff; stroke: #6366f1; stroke-width: 2; }
      .label { fill: #374151; font-family: monospace; font-size: 11px; }
      .heading { fill: #1f2937; font-family: system-ui, sans-serif; font-size: 14px; font-weight: bold; }
      .text-sm { fill: #6b7280; font-family: system-ui, sans-serif; font-size: 10px; }
      .text-md { fill: #374151; font-family: system-ui, sans-serif; font-size: 12px; }
      .leader { stroke: #1e40af; stroke-width: 2; stroke-dasharray: 4,2; }
      .map-bg { fill: #dbeafe; stroke: #374151; stroke-width: 1; }
      .panel-shadow { filter: drop-shadow(-4px 0 8px rgba(0,0,0,0.1)); }
    </style>
  </defs>

  <!-- Background -->
  <rect class="bg" width="1200" height="800"/>

  <!-- Title -->
  <text x="600" y="25" text-anchor="middle" class="annotation" font-size="14" font-weight="bold">01 - COMPANY TRACKING: DETAIL PANEL</text>
  <text x="600" y="40" text-anchor="middle" class="annotation">Slide panel showing company details with edit capabilities</text>

  <!-- ============================================ -->
  <!-- BACKGROUND APP (Dimmed) -->
  <!-- ============================================ -->

  <!-- Header -->
  <rect x="40" y="60" width="1120" height="50" fill="#1f2937" opacity="0.7"/>

  <!-- Left sidebar (routes) - dimmed -->
  <rect x="40" y="110" width="220" height="630" fill="#e5e7eb" opacity="0.5" stroke="#374151"/>
  <text x="150" y="400" text-anchor="middle" class="text-sm" fill="#9ca3af">[Routes Sidebar]</text>

  <!-- Center list - dimmed -->
  <rect x="260" y="110" width="480" height="630" fill="#f9fafb" opacity="0.5" stroke="#374151"/>
  <text x="500" y="400" text-anchor="middle" class="text-sm" fill="#9ca3af">[Company List]</text>

  <!-- ============================================ -->
  <!-- SLIDE PANEL -->
  <!-- ============================================ -->
  <g class="panel-shadow">
    <rect x="750" y="110" width="410" height="630" fill="white" stroke="#374151" stroke-width="2"/>
  </g>

  <!-- Panel Header -->
  <rect x="750" y="110" width="410" height="60" fill="#f9fafb"/>
  <text x="780" y="148" class="heading" font-size="16">Life Care Centers</text>
  <text x="1120" y="145" fill="#6b7280" font-size="20" style="cursor:pointer">×</text>

  <!-- Distance Badge -->
  <rect x="950" y="128" width="60" height="26" rx="4" fill="#dcfce7" stroke="#22c55e"/>
  <text x="980" y="146" text-anchor="middle" class="text-md" fill="#166534">2.1 mi</text>

  <!-- Priority dots -->
  <circle cx="1030" cy="140" r="6" fill="#ef4444"/>
  <circle cx="1048" cy="140" r="6" fill="#ef4444"/>
  <circle cx="1066" cy="140" r="6" fill="#ef4444"/>

  <!-- ============================================ -->
  <!-- ADDRESS SECTION -->
  <!-- ============================================ -->
  <g transform="translate(770, 190)">
    <text x="0" y="0" class="label">ADDRESS</text>
    <text x="0" y="20" class="text-md">123 Main Street</text>
    <text x="0" y="38" class="text-md">Cleveland, TN 37311</text>

    <rect x="0" y="55" width="100" height="28" rx="4" fill="#6366f1"/>
    <text x="50" y="74" text-anchor="middle" fill="white" class="text-sm">Directions</text>

    <rect x="110" y="55" width="80" height="28" rx="4" class="fill-white"/>
    <text x="150" y="74" text-anchor="middle" class="text-sm">Copy</text>
  </g>

  <!-- ============================================ -->
  <!-- APPLICATIONS SECTION -->
  <!-- ============================================ -->
  <g transform="translate(770, 290)">
    <text x="0" y="0" class="label">APPLICATIONS (2)</text>
    <rect x="270" y="-15" width="100" height="26" rx="4" fill="#6366f1"/>
    <text x="320" y="2" text-anchor="middle" fill="white" class="text-sm">+ Add Application</text>

    <!-- Application 1 - Rejected -->
    <rect x="0" y="15" width="370" height="70" rx="6" fill="#fef2f2" stroke="#fecaca"/>
    <text x="15" y="38" class="text-md" font-weight="bold">Backend Senior Lead</text>
    <rect x="180" y="24" width="70" height="22" rx="11" fill="#fee2e2" stroke="#ef4444"/>
    <text x="215" y="40" text-anchor="middle" class="text-sm" fill="#dc2626">Rejected</text>
    <text x="260" y="40" class="text-sm" fill="#6b7280">Dec 20</text>
    <text x="15" y="60" class="text-sm" fill="#6b7280">"Encouraged to apply for frontend role"</text>
    <text x="340" y="72" class="text-sm" fill="#6366f1">Edit</text>

    <!-- Application 2 - Active -->
    <rect x="0" y="95" width="370" height="70" rx="6" fill="#eff6ff" stroke="#3b82f6" stroke-width="2"/>
    <text x="15" y="118" class="text-md" font-weight="bold">Frontend Junior Developer</text>
    <rect x="210" y="104" width="60" height="22" rx="11" fill="#dbeafe" stroke="#3b82f6"/>
    <text x="240" y="120" text-anchor="middle" class="text-sm" fill="#1d4ed8">Applied</text>
    <text x="280" y="120" class="text-sm" fill="#6b7280">Dec 26</text>
    <text x="15" y="140" class="text-sm" fill="#6b7280">"Referred by Sarah from previous application"</text>
    <rect x="270" y="145" width="90" height="24" rx="4" fill="white" stroke="#6366f1"/>
    <text x="315" y="161" text-anchor="middle" class="text-sm" fill="#6366f1">Update Status</text>
  </g>

  <!-- ============================================ -->
  <!-- COMPANY INFO -->
  <!-- ============================================ -->
  <g transform="translate(770, 480)">
    <text x="0" y="0" class="label">COMPANY INFO</text>

    <text x="0" y="22" class="text-sm" fill="#6b7280">Industry</text>
    <text x="80" y="22" class="text-md">Healthcare</text>
    <text x="190" y="22" class="text-sm" fill="#6b7280">Size</text>
    <text x="230" y="22" class="text-md">100-500</text>

    <text x="0" y="44" class="text-sm" fill="#6b7280">Added</text>
    <text x="80" y="44" class="text-md">Dec 15, 2025</text>
    <text x="190" y="44" class="text-sm" fill="#6b7280">Updated</text>
    <text x="240" y="44" class="text-md">Dec 26</text>
  </g>

  <!-- ============================================ -->
  <!-- COMPANY NOTES SECTION -->
  <!-- ============================================ -->
  <g transform="translate(770, 545)">
    <text x="0" y="0" class="label">COMPANY NOTES</text>
    <rect x="0" y="15" width="370" height="70" rx="6" class="fill-white"/>
    <text x="15" y="38" class="text-md">Contact: Sarah Johnson (HR)</text>
    <text x="15" y="58" class="text-md">sjohnson@lifecare.com</text>
    <text x="340" y="75" text-anchor="end" class="text-sm" fill="#6366f1">Edit</text>
  </g>

  <!-- ============================================ -->
  <!-- PANEL ACTIONS -->
  <!-- ============================================ -->
  <g transform="translate(770, 660)">
    <rect x="0" y="0" width="90" height="36" rx="6" fill="#6366f1"/>
    <text x="45" y="23" text-anchor="middle" fill="white" class="text-md">Edit</text>

    <rect x="100" y="0" width="110" height="36" rx="6" fill="white" stroke="#6366f1"/>
    <text x="155" y="23" text-anchor="middle" fill="#6366f1" class="text-md">Add to Route</text>

    <rect x="220" y="0" width="80" height="36" rx="6" fill="white" stroke="#6366f1"/>
    <text x="260" y="23" text-anchor="middle" fill="#6366f1" class="text-md">Share</text>

    <rect x="310" y="0" width="60" height="36" rx="6" fill="white" stroke="#ef4444"/>
    <text x="340" y="23" text-anchor="middle" fill="#ef4444" class="text-md">Delete</text>
  </g>

  <!-- ============================================ -->
  <!-- SLIDE ANIMATION INDICATOR -->
  <!-- ============================================ -->
  <path d="M 730,400 L 750,400" stroke="#6366f1" stroke-width="3"/>
  <path d="M 720,390 L 730,400 L 720,410" stroke="#6366f1" stroke-width="3" fill="none"/>
  <text x="680" y="420" text-anchor="middle" class="annotation">Slides in</text>
  <text x="680" y="435" text-anchor="middle" class="annotation">from right</text>

  <!-- ============================================ -->
  <!-- ANNOTATIONS -->
  <!-- ============================================ -->

  <!-- Panel overview -->
  <rect x="40" y="120" width="180" height="80" rx="4" class="annotation-box"/>
  <text x="130" y="145" text-anchor="middle" class="annotation" font-weight="bold">SLIDE PANEL</text>
  <text x="50" y="165" class="annotation">- Opens on row click</text>
  <text x="50" y="180" class="annotation">- Non-destructive overlay</text>
  <text x="50" y="195" class="annotation">- X or ESC to close</text>

  <!-- Applications annotation -->
  <rect x="40" y="280" width="180" height="95" rx="4" class="annotation-box"/>
  <text x="130" y="305" text-anchor="middle" class="annotation" font-weight="bold">APPLICATIONS LIST</text>
  <text x="50" y="325" class="annotation">Multiple roles per company</text>
  <text x="50" y="340" class="annotation">Each has own status</text>
  <text x="50" y="355" class="annotation">Blue border = active</text>
  <text x="50" y="370" class="annotation">Red bg = rejected</text>

  <!-- Notes annotation -->
  <rect x="40" y="500" width="180" height="80" rx="4" class="annotation-box"/>
  <text x="130" y="520" text-anchor="middle" class="annotation" font-weight="bold">TWO LEVELS OF NOTES</text>
  <text x="50" y="540" class="annotation">Company notes: general info</text>
  <text x="50" y="555" class="annotation">Application notes: per-role</text>
  <text x="50" y="570" class="annotation">Both private to user</text>

  <!-- Action buttons annotation -->
  <rect x="40" y="620" width="200" height="100" rx="4" class="annotation-box"/>
  <text x="140" y="645" text-anchor="middle" class="annotation" font-weight="bold">ACTIONS</text>
  <text x="50" y="665" class="annotation">Edit → Opens modal</text>
  <text x="50" y="680" class="annotation">Add to Route → Route picker</text>
  <text x="50" y="695" class="annotation">Share → Contribute to registry</text>
  <text x="50" y="710" class="annotation">Delete → Confirm modal</text>

  <!-- Z-index note -->
  <rect x="40" y="750" width="350" height="25" rx="4" fill="white" stroke="#d1d5db"/>
  <text x="50" y="767" class="text-sm">Panel z-index: 10 (above list, below modals at 20)</text>

</svg>