<svg xmlns="http://www.w3.org/2000/svg" viewBox="0 0 1200 800" width="1200" height="800">
  <defs>
    <style>
      .bg { fill: #f0f4f8; }
      .fill-white { fill: #ffffff; stroke: #374151; stroke-width: 1; }
      .fill-dark { fill: #1f2937; }
      .annotation { fill: #6366f1; font-family: monospace; font-size: 10px; }
      .annotation-box { fill: #ffffff; stroke: #6366f1; stroke-width: 2; }
      .label { fill: #374151; font-family: monospace; font-size: 11px; }
      .heading { fill: #1f2937; font-family: system-ui, sans-serif; font-size: 14px; font-weight: bold; }
      .text-sm { fill: #6b7280; font-family: system-ui, sans-serif; font-size: 10px; }
      .text-md { fill: #374151; font-family: system-ui, sans-serif; font-size: 12px; }
      .leader { stroke: #6366f1; stroke-width: 1; stroke-dasharray: 2,2; }
      .map-bg { fill: #dbeafe; stroke: #374151; stroke-width: 1; }
    </style>
  </defs>

  <!-- Background -->
  <rect class="bg" width="1200" height="800"/>

  <!-- Title -->
  <text x="600" y="25" text-anchor="middle" class="annotation" font-size="14" font-weight="bold">03 - SHARED REGISTRY: BROWSE &amp; FILTER</text>
  <text x="600" y="40" text-anchor="middle" class="annotation">Community-contributed company directory with search and filters</text>

  <!-- ============================================ -->
  <!-- HEADER -->
  <!-- ============================================ -->
  <rect x="40" y="60" width="1120" height="50" class="fill-dark"/>
  <circle cx="75" cy="85" r="16" fill="#6366f1"/>
  <text x="75" y="90" text-anchor="middle" fill="white" font-size="12" font-weight="bold">S</text>
  <text x="100" y="90" fill="white" class="heading">SpokeToWork</text>
  <text x="350" y="90" class="text-md" fill="#9ca3af">Companies</text>
  <text x="440" y="90" class="text-md" fill="#9ca3af">Routes</text>
  <rect x="495" y="70" width="65" height="30" rx="4" fill="#374151"/>
  <text x="527" y="90" text-anchor="middle" class="text-md" fill="white">Registry</text>

  <!-- ============================================ -->
  <!-- PAGE HEADER -->
  <!-- ============================================ -->
  <rect x="40" y="110" width="1120" height="60" fill="white" stroke="#374151"/>
  <text x="60" y="150" class="heading" font-size="20">Shared Company Registry</text>
  <text x="350" y="150" class="text-md" fill="#6b7280">127 companies contributed by the community</text>

  <!-- View toggle -->
  <rect x="900" y="125" width="80" height="32" rx="4" fill="#6366f1"/>
  <text x="940" y="145" text-anchor="middle" fill="white" class="text-sm">Cards</text>
  <rect x="980" y="125" width="70" height="32" rx="4" class="fill-white"/>
  <text x="1015" y="145" text-anchor="middle" class="text-sm">List</text>

  <rect x="1060" y="125" width="90" height="32" rx="4" fill="#22c55e"/>
  <text x="1105" y="145" text-anchor="middle" fill="white" class="text-sm">+ Contribute</text>

  <!-- ============================================ -->
  <!-- FILTER BAR -->
  <!-- ============================================ -->
  <rect x="40" y="170" width="1120" height="55" fill="#f9fafb" stroke="#374151"/>

  <!-- Search -->
  <rect x="60" y="182" width="250" height="36" rx="6" class="fill-white"/>
  <text x="80" y="205" class="text-sm" fill="#9ca3af">Search companies...</text>

  <!-- Industry filter -->
  <rect x="330" y="182" width="100" height="36" rx="18" fill="#dbeafe" stroke="#3b82f6"/>
  <text x="380" y="205" text-anchor="middle" class="text-sm" fill="#3b82f6">Healthcare</text>
  <text x="415" y="205" fill="#3b82f6" class="text-sm">x</text>

  <!-- Manufacturing filter -->
  <rect x="445" y="182" width="110" height="36" rx="18" fill="#dbeafe" stroke="#3b82f6"/>
  <text x="500" y="205" text-anchor="middle" class="text-sm" fill="#3b82f6">Manufacturing</text>
  <text x="545" y="205" fill="#3b82f6" class="text-sm">x</text>

  <!-- Distance slider -->
  <text x="580" y="195" class="label">DISTANCE</text>
  <rect x="580" y="200" width="150" height="4" rx="2" fill="#e5e7eb"/>
  <rect x="580" y="200" width="75" height="4" rx="2" fill="#6366f1"/>
  <circle cx="655" cy="202" r="8" fill="#6366f1" stroke="white" stroke-width="2"/>
  <text x="675" y="207" class="text-sm">&lt;5 mi</text>

  <!-- More filters -->
  <rect x="750" y="182" width="100" height="36" rx="6" class="fill-white"/>
  <text x="800" y="205" text-anchor="middle" class="text-sm">+ More Filters</text>

  <!-- Clear all -->
  <text x="880" y="205" class="text-sm" fill="#6366f1">Clear all</text>

  <!-- Results count -->
  <text x="1050" y="205" class="text-sm" fill="#6b7280">24 results</text>

  <!-- ============================================ -->
  <!-- COMPANY CARDS GRID -->
  <!-- ============================================ -->

  <!-- Row 1 -->
  <g transform="translate(60, 245)">
    <!-- Card 1 -->
    <rect x="0" y="0" width="340" height="140" rx="8" fill="white" stroke="#374151"/>
    <text x="20" y="30" class="heading">Life Care Centers</text>
    <text x="20" y="50" class="text-sm">123 Main St, Cleveland TN</text>

    <rect x="20" y="65" width="80" height="22" rx="4" fill="#dcfce7" stroke="#22c55e"/>
    <text x="60" y="80" text-anchor="middle" class="text-sm">Healthcare</text>

    <rect x="110" y="65" width="50" height="22" rx="4" fill="#dcfce7" stroke="#22c55e"/>
    <text x="135" y="80" text-anchor="middle" class="text-sm">2.1 mi</text>

    <text x="20" y="110" class="text-sm" fill="#6b7280">12 people tracking</text>

    <rect x="200" y="100" width="120" height="28" rx="4" fill="#6366f1"/>
    <text x="260" y="118" text-anchor="middle" fill="white" class="text-sm">Add to My List</text>
  </g>

  <g transform="translate(420, 245)">
    <!-- Card 2 -->
    <rect x="0" y="0" width="340" height="140" rx="8" fill="white" stroke="#374151"/>
    <text x="20" y="30" class="heading">Cleveland Regional Medical</text>
    <text x="20" y="50" class="text-sm">500 Hospital Rd, Cleveland TN</text>

    <rect x="20" y="65" width="80" height="22" rx="4" fill="#dcfce7" stroke="#22c55e"/>
    <text x="60" y="80" text-anchor="middle" class="text-sm">Healthcare</text>

    <rect x="110" y="65" width="50" height="22" rx="4" fill="#fef9c3" stroke="#eab308"/>
    <text x="135" y="80" text-anchor="middle" class="text-sm">3.8 mi</text>

    <text x="20" y="110" class="text-sm" fill="#6b7280">8 people tracking</text>

    <rect x="200" y="100" width="120" height="28" rx="4" fill="#6366f1"/>
    <text x="260" y="118" text-anchor="middle" fill="white" class="text-sm">Add to My List</text>
  </g>

  <g transform="translate(780, 245)">
    <!-- Card 3 - Already added -->
    <rect x="0" y="0" width="340" height="140" rx="8" fill="#f9fafb" stroke="#22c55e" stroke-width="2"/>
    <text x="20" y="30" class="heading">Wacker Chemical</text>
    <text x="20" y="50" class="text-sm">456 Industrial Pkwy, Cleveland TN</text>

    <rect x="20" y="65" width="100" height="22" rx="4" fill="#dbeafe" stroke="#3b82f6"/>
    <text x="70" y="80" text-anchor="middle" class="text-sm">Manufacturing</text>

    <rect x="130" y="65" width="50" height="22" rx="4" fill="#fef9c3" stroke="#eab308"/>
    <text x="155" y="80" text-anchor="middle" class="text-sm">4.5 mi</text>

    <text x="20" y="110" class="text-sm" fill="#6b7280">15 people tracking</text>

    <rect x="200" y="100" width="120" height="28" rx="4" fill="#dcfce7" stroke="#22c55e"/>
    <text x="260" y="118" text-anchor="middle" fill="#166534" class="text-sm">On Your List ✓</text>
  </g>

  <!-- Row 2 -->
  <g transform="translate(60, 400)">
    <rect x="0" y="0" width="340" height="140" rx="8" fill="white" stroke="#374151"/>
    <text x="20" y="30" class="heading">Tennova Healthcare</text>
    <text x="20" y="50" class="text-sm">789 Care Lane, Cleveland TN</text>

    <rect x="20" y="65" width="80" height="22" rx="4" fill="#dcfce7" stroke="#22c55e"/>
    <text x="60" y="80" text-anchor="middle" class="text-sm">Healthcare</text>

    <rect x="110" y="65" width="50" height="22" rx="4" fill="#dcfce7" stroke="#22c55e"/>
    <text x="135" y="80" text-anchor="middle" class="text-sm">1.5 mi</text>

    <text x="20" y="110" class="text-sm" fill="#6b7280">6 people tracking</text>

    <rect x="200" y="100" width="120" height="28" rx="4" fill="#6366f1"/>
    <text x="260" y="118" text-anchor="middle" fill="white" class="text-sm">Add to My List</text>
  </g>

  <g transform="translate(420, 400)">
    <rect x="0" y="0" width="340" height="140" rx="8" fill="white" stroke="#374151"/>
    <text x="20" y="30" class="heading">Whirlpool Corporation</text>
    <text x="20" y="50" class="text-sm">101 Factory Rd, Cleveland TN</text>

    <rect x="20" y="65" width="100" height="22" rx="4" fill="#dbeafe" stroke="#3b82f6"/>
    <text x="70" y="80" text-anchor="middle" class="text-sm">Manufacturing</text>

    <rect x="130" y="65" width="50" height="22" rx="4" fill="#fee2e2" stroke="#ef4444"/>
    <text x="155" y="80" text-anchor="middle" class="text-sm">7.2 mi</text>

    <text x="20" y="110" class="text-sm" fill="#6b7280">22 people tracking</text>

    <rect x="200" y="100" width="120" height="28" rx="4" fill="#6366f1"/>
    <text x="260" y="118" text-anchor="middle" fill="white" class="text-sm">Add to My List</text>
  </g>

  <g transform="translate(780, 400)">
    <rect x="0" y="0" width="340" height="140" rx="8" fill="white" stroke="#374151"/>
    <text x="20" y="30" class="heading">Dura-Line Corporation</text>
    <text x="20" y="50" class="text-sm">555 Pipe Lane, Cleveland TN</text>

    <rect x="20" y="65" width="100" height="22" rx="4" fill="#dbeafe" stroke="#3b82f6"/>
    <text x="70" y="80" text-anchor="middle" class="text-sm">Manufacturing</text>

    <rect x="130" y="65" width="50" height="22" rx="4" fill="#dcfce7" stroke="#22c55e"/>
    <text x="155" y="80" text-anchor="middle" class="text-sm">1.8 mi</text>

    <text x="20" y="110" class="text-sm" fill="#6b7280">9 people tracking</text>

    <rect x="200" y="100" width="120" height="28" rx="4" fill="#6366f1"/>
    <text x="260" y="118" text-anchor="middle" fill="white" class="text-sm">Add to My List</text>
  </g>

  <!-- ============================================ -->
  <!-- PAGINATION -->
  <!-- ============================================ -->
  <rect x="500" y="570" width="200" height="40" rx="4" fill="none"/>
  <rect x="520" y="575" width="30" height="30" rx="4" fill="#6366f1"/>
  <text x="535" y="595" text-anchor="middle" fill="white" class="text-md">1</text>
  <rect x="555" y="575" width="30" height="30" rx="4" class="fill-white"/>
  <text x="570" y="595" text-anchor="middle" class="text-md">2</text>
  <rect x="590" y="575" width="30" height="30" rx="4" class="fill-white"/>
  <text x="605" y="595" text-anchor="middle" class="text-md">3</text>
  <rect x="625" y="575" width="30" height="30" rx="4" class="fill-white"/>
  <text x="640" y="595" text-anchor="middle" class="text-md">4</text>
  <text x="680" y="595" class="text-md">›</text>

  <!-- ============================================ -->
  <!-- ANNOTATIONS -->
  <!-- ============================================ -->

  <!-- Filter annotation -->
  <rect x="40" y="630" width="200" height="80" rx="4" class="annotation-box"/>
  <text x="140" y="650" text-anchor="middle" class="annotation" font-weight="bold">FILTER BAR</text>
  <text x="50" y="670" class="annotation">- Active filters as chips</text>
  <text x="50" y="685" class="annotation">- Distance slider with preview</text>
  <text x="50" y="700" class="annotation">- Results count updates live</text>

  <!-- Card annotation -->
  <rect x="280" y="630" width="200" height="80" rx="4" class="annotation-box"/>
  <text x="380" y="650" text-anchor="middle" class="annotation" font-weight="bold">COMPANY CARDS</text>
  <text x="290" y="670" class="annotation">- Name, address, industry</text>
  <text x="290" y="685" class="annotation">- Distance from home</text>
  <text x="290" y="700" class="annotation">- Tracker count (social proof)</text>

  <!-- Tracking count annotation -->
  <rect x="520" y="630" width="200" height="80" rx="4" class="annotation-box"/>
  <text x="620" y="650" text-anchor="middle" class="annotation" font-weight="bold">TRACKER COUNT</text>
  <text x="530" y="670" class="annotation">- Shows interest level</text>
  <text x="530" y="685" class="annotation">- Anonymous (no names)</text>
  <text x="530" y="700" class="annotation">- Updates when users add</text>

  <!-- Already added annotation -->
  <rect x="760" y="630" width="200" height="80" rx="4" class="annotation-box"/>
  <text x="860" y="650" text-anchor="middle" class="annotation" font-weight="bold">ALREADY ON LIST</text>
  <text x="770" y="670" class="annotation">- Green border + checkmark</text>
  <text x="770" y="685" class="annotation">- Dimmed background</text>
  <text x="770" y="700" class="annotation">- Click opens detail panel</text>
  <path d="M 900,630 L 930,395" class="leader"/>

  <!-- Contribute button annotation -->
  <rect x="1000" y="630" width="150" height="65" rx="4" class="annotation-box"/>
  <text x="1075" y="650" text-anchor="middle" class="annotation" font-weight="bold">CONTRIBUTE</text>
  <text x="1010" y="670" class="annotation">Share your private</text>
  <text x="1010" y="685" class="annotation">company with community</text>
  <path d="M 1075,630 L 1105,160" class="leader"/>

</svg>