<svg xmlns="http://www.w3.org/2000/svg" viewBox="0 0 1200 800" width="1200" height="800">
  <defs>
    <style>
      .bg { fill: #f0f4f8; }
      .overlay { fill: rgba(0,0,0,0.6); }
      .fill-white { fill: #ffffff; stroke: #374151; stroke-width: 1; }
      .annotation { fill: #6366f1; font-family: monospace; font-size: 10px; }
      .annotation-box { fill: #ffffff; stroke: #6366f1; stroke-width: 2; }
      .label { fill: #374151; font-family: monospace; font-size: 11px; }
      .heading { fill: #1f2937; font-family: system-ui, sans-serif; font-size: 14px; font-weight: bold; }
      .text-sm { fill: #6b7280; font-family: system-ui, sans-serif; font-size: 10px; }
      .text-md { fill: #374151; font-family: system-ui, sans-serif; font-size: 12px; }
      .leader { stroke: #1e40af; stroke-width: 2; stroke-dasharray: 4,2; }
      .map-bg { fill: #dbeafe; stroke: #374151; stroke-width: 1; }
    </style>
  </defs>

  <!-- Background -->
  <rect class="bg" width="1200" height="800"/>

  <!-- Title -->
  <text x="600" y="25" text-anchor="middle" class="annotation" font-size="14" font-weight="bold">02 - HOME LOCATION: ONBOARDING PROMPT</text>
  <text x="600" y="40" text-anchor="middle" class="annotation">First-time user setup - set home for distance calculations</text>

  <!-- Dimmed background -->
  <rect x="40" y="60" width="1120" height="700" class="overlay" rx="8"/>

  <!-- ============================================ -->
  <!-- ONBOARDING MODAL -->
  <!-- ============================================ -->
  <rect x="300" y="100" width="600" height="580" rx="16" fill="white" stroke="#374151" stroke-width="2"/>

  <!-- Progress indicator -->
  <g transform="translate(400, 120)">
    <circle cx="0" cy="0" r="12" fill="#6366f1"/>
    <text x="0" y="5" text-anchor="middle" fill="white" font-size="10" font-weight="bold">1</text>

    <line x1="15" y1="0" x2="85" y2="0" stroke="#e5e7eb" stroke-width="2"/>

    <circle cx="100" cy="0" r="12" stroke="#e5e7eb" stroke-width="2" fill="white"/>
    <text x="100" y="5" text-anchor="middle" fill="#9ca3af" font-size="10">2</text>

    <line x1="115" y1="0" x2="185" y2="0" stroke="#e5e7eb" stroke-width="2"/>

    <circle cx="200" cy="0" r="12" stroke="#e5e7eb" stroke-width="2" fill="white"/>
    <text x="200" y="5" text-anchor="middle" fill="#9ca3af" font-size="10">3</text>
  </g>

  <!-- Welcome message -->
  <text x="600" y="175" text-anchor="middle" class="heading" font-size="24">Welcome to SpokeToWork!</text>
  <text x="600" y="205" text-anchor="middle" class="text-md" fill="#6b7280">Let's set up your home location to calculate distances to employers</text>

  <!-- Bicycle illustration placeholder -->
  <rect x="450" y="230" width="300" height="120" rx="8" fill="#f3f4f6" stroke="#e5e7eb"/>
  <circle cx="520" cy="310" r="30" stroke="#6366f1" stroke-width="3" fill="none"/>
  <circle cx="680" cy="310" r="30" stroke="#6366f1" stroke-width="3" fill="none"/>
  <path d="M 520,310 L 600,270 L 680,310 L 600,290 L 520,310" stroke="#6366f1" stroke-width="3" fill="none"/>
  <circle cx="600" cy="270" r="8" fill="#6366f1"/>
  <text x="600" y="340" text-anchor="middle" class="text-sm" fill="#9ca3af">[Bicycle illustration]</text>

  <!-- Address form -->
  <g transform="translate(350, 380)">
    <text x="0" y="0" class="label">YOUR HOME ADDRESS</text>

    <rect x="0" y="15" width="500" height="44" rx="6" class="fill-white"/>
    <text x="15" y="42" class="text-md" fill="#9ca3af">Enter your street address...</text>

    <text x="0" y="85" class="label">CITY, STATE ZIP</text>
    <rect x="0" y="100" width="200" height="44" rx="6" class="fill-white"/>
    <text x="15" y="127" class="text-md" fill="#9ca3af">City</text>

    <rect x="210" y="100" width="100" height="44" rx="6" class="fill-white"/>
    <text x="225" y="127" class="text-md" fill="#9ca3af">State</text>
    <polygon points="290,120 300,120 295,130" fill="#6b7280"/>

    <rect x="320" y="100" width="100" height="44" rx="6" class="fill-white"/>
    <text x="335" y="127" class="text-md" fill="#9ca3af">ZIP</text>

    <rect x="430" y="100" width="70" height="44" rx="6" fill="#6366f1"/>
    <text x="465" y="127" text-anchor="middle" fill="white" class="text-md">Find</text>
  </g>

  <!-- Privacy note -->
  <g transform="translate(350, 540)">
    <rect x="0" y="0" width="500" height="50" rx="6" fill="#f0fdf4" stroke="#22c55e"/>
    <circle cx="25" cy="25" r="12" fill="#22c55e"/>
    <text x="25" y="30" text-anchor="middle" fill="white" font-size="12">i</text>
    <text x="50" y="20" class="text-sm" fill="#166534">Your address is private and only used for distance calculations.</text>
    <text x="50" y="38" class="text-sm" fill="#166534">It will never be shared with employers or other users.</text>
  </g>

  <!-- Action buttons -->
  <g transform="translate(350, 610)">
    <text x="0" y="20" class="text-sm" fill="#6366f1" style="cursor:pointer">Skip for now →</text>

    <rect x="350" y="0" width="150" height="48" rx="8" fill="#6366f1"/>
    <text x="425" y="30" text-anchor="middle" fill="white" class="heading">Set Home Location</text>
  </g>

  <!-- ============================================ -->
  <!-- ANNOTATIONS -->
  <!-- ============================================ -->

  <!-- Progress indicator annotation -->
  <rect x="920" y="100" width="180" height="80" rx="4" class="annotation-box"/>
  <text x="1010" y="125" text-anchor="middle" class="annotation" font-weight="bold">ONBOARDING STEPS</text>
  <text x="930" y="145" class="annotation">1. Set home location</text>
  <text x="930" y="160" class="annotation">2. Add first company</text>
  <text x="930" y="175" class="annotation">3. View on map</text>
  <path d="M 920,150 L 620,120" class="leader"/>

  <!-- Address autocomplete annotation -->
  <rect x="920" y="380" width="180" height="80" rx="4" class="annotation-box"/>
  <text x="1010" y="400" text-anchor="middle" class="annotation" font-weight="bold">ADDRESS INPUT</text>
  <text x="930" y="420" class="annotation">- Autocomplete suggestions</text>
  <text x="930" y="435" class="annotation">- Geocodes via Nominatim</text>
  <text x="930" y="450" class="annotation">- Validates US addresses</text>
  <path d="M 920,430 L 865,430" class="leader"/>

  <!-- Skip option annotation -->
  <rect x="40" y="580" width="180" height="80" rx="4" class="annotation-box"/>
  <text x="130" y="600" text-anchor="middle" class="annotation" font-weight="bold">SKIP OPTION</text>
  <text x="50" y="620" class="annotation">- Allows exploring app first</text>
  <text x="50" y="635" class="annotation">- Distances won't show</text>
  <text x="50" y="650" class="annotation">- Prompt returns on map view</text>
  <path d="M 220,620 L 350,630" class="leader"/>

  <!-- Privacy note annotation -->
  <rect x="40" y="450" width="180" height="65" rx="4" class="annotation-box"/>
  <text x="130" y="470" text-anchor="middle" class="annotation" font-weight="bold">PRIVACY MESSAGE</text>
  <text x="50" y="490" class="annotation">Builds trust upfront</text>
  <text x="50" y="505" class="annotation">Green = safe / positive</text>
  <path d="M 220,490 L 350,560" class="leader"/>

  <!-- Modal behavior -->
  <rect x="40" y="120" width="180" height="80" rx="4" class="annotation-box"/>
  <text x="130" y="140" text-anchor="middle" class="annotation" font-weight="bold">MODAL BEHAVIOR</text>
  <text x="50" y="160" class="annotation">- Full-screen takeover</text>
  <text x="50" y="175" class="annotation">- No close button (skip only)</text>
  <text x="50" y="190" class="annotation">- Required for new users</text>

</svg>