<svg xmlns="http://www.w3.org/2000/svg" viewBox="0 0 1200 800" width="1200" height="800">
  <defs>
    <style>
      .bg { fill: #f0f4f8; }
      .fill-white { fill: #ffffff; stroke: #374151; stroke-width: 1; }
      .fill-dark { fill: #1f2937; }
      .annotation { fill: #6366f1; font-family: monospace; font-size: 10px; }
      .annotation-box { fill: #ffffff; stroke: #6366f1; stroke-width: 2; }
      .label { fill: #374151; font-family: monospace; font-size: 11px; }
      .heading { fill: #1f2937; font-family: system-ui, sans-serif; font-size: 14px; font-weight: bold; }
      .text-sm { fill: #6b7280; font-family: system-ui, sans-serif; font-size: 10px; }
      .text-md { fill: #374151; font-family: system-ui, sans-serif; font-size: 12px; }
      .leader { stroke: #1e40af; stroke-width: 2; stroke-dasharray: 4,2; }
      .map-bg { fill: #dbeafe; stroke: #374151; stroke-width: 1; }
    </style>
  </defs>

  <!-- Background -->
  <rect class="bg" width="1200" height="800"/>

  <!-- Title -->
  <text x="600" y="25" text-anchor="middle" class="annotation" font-size="14" font-weight="bold">02 - HOME LOCATION: SETTINGS UPDATE</text>
  <text x="600" y="40" text-anchor="middle" class="annotation">Settings page for viewing and updating home address</text>

  <!-- ============================================ -->
  <!-- HEADER -->
  <!-- ============================================ -->
  <rect x="40" y="60" width="1120" height="50" class="fill-dark"/>
  <circle cx="75" cy="85" r="16" fill="#6366f1"/>
  <text x="75" y="90" text-anchor="middle" fill="white" font-size="12" font-weight="bold">S</text>
  <text x="100" y="90" fill="white" class="heading">SpokeToWork</text>
  <text x="350" y="90" class="text-md" fill="#9ca3af">Companies</text>
  <text x="440" y="90" class="text-md" fill="#9ca3af">Routes</text>
  <text x="510" y="90" class="text-md" fill="#9ca3af">Registry</text>
  <text x="600" y="90" class="text-md" fill="white">Settings</text>

  <!-- ============================================ -->
  <!-- SETTINGS SIDEBAR -->
  <!-- ============================================ -->
  <rect x="40" y="110" width="220" height="630" fill="white" stroke="#374151"/>

  <text x="60" y="145" class="heading">Settings</text>

  <!-- Settings menu items -->
  <rect x="50" y="165" width="200" height="40" rx="6" fill="#ede9fe"/>
  <circle cx="75" cy="185" r="12" fill="#6366f1"/>
  <path d="M 70,182 L 75,190 L 80,180" fill="none" stroke="white" stroke-width="2"/>
  <text x="100" y="190" class="text-md" fill="#6366f1">Home Location</text>

  <rect x="50" y="215" width="200" height="40" rx="6" fill="none"/>
  <circle cx="75" cy="235" r="12" stroke="#9ca3af" fill="none"/>
  <text x="100" y="240" class="text-md">Account</text>

  <rect x="50" y="265" width="200" height="40" rx="6" fill="none"/>
  <circle cx="75" cy="285" r="12" stroke="#9ca3af" fill="none"/>
  <text x="100" y="290" class="text-md">Notifications</text>

  <rect x="50" y="315" width="200" height="40" rx="6" fill="none"/>
  <circle cx="75" cy="335" r="12" stroke="#9ca3af" fill="none"/>
  <text x="100" y="340" class="text-md">Privacy</text>

  <rect x="50" y="365" width="200" height="40" rx="6" fill="none"/>
  <circle cx="75" cy="385" r="12" stroke="#9ca3af" fill="none"/>
  <text x="100" y="390" class="text-md">Help &amp; Support</text>

  <!-- ============================================ -->
  <!-- MAIN CONTENT -->
  <!-- ============================================ -->
  <rect x="270" y="110" width="890" height="630" fill="#f9fafb" stroke="#374151"/>

  <!-- Section header -->
  <text x="300" y="150" class="heading" font-size="20">Home Location</text>
  <text x="300" y="175" class="text-md" fill="#6b7280">Your starting point for distance calculations to employers</text>

  <!-- ============================================ -->
  <!-- CURRENT ADDRESS DISPLAY -->
  <!-- ============================================ -->
  <rect x="300" y="200" width="500" height="140" rx="8" fill="white" stroke="#374151"/>

  <text x="320" y="230" class="label">CURRENT ADDRESS</text>

  <text x="320" y="260" class="heading" font-size="16">456 Oak Street</text>
  <text x="320" y="285" class="text-md">Cleveland, TN 37311</text>

  <!-- Home marker icon -->
  <circle cx="740" cy="265" r="24" fill="#dcfce7"/>
  <circle cx="740" cy="265" r="16" fill="#22c55e"/>
  <circle cx="740" cy="265" r="8" fill="white"/>
  <polygon points="740,255 733,265 747,265" fill="#22c55e"/>
  <rect x="736" y="263" width="8" height="8" fill="#22c55e"/>

  <text x="320" y="320" class="text-sm" fill="#6b7280">Coordinates: 35.1589° N, 84.8733° W</text>

  <!-- ============================================ -->
  <!-- EDIT FORM (Initially collapsed, shown expanded) -->
  <!-- ============================================ -->
  <rect x="300" y="360" width="500" height="240" rx="8" fill="white" stroke="#6366f1" stroke-width="2"/>

  <text x="320" y="395" class="label" fill="#6366f1">UPDATE ADDRESS</text>

  <text x="320" y="420" class="label">STREET ADDRESS</text>
  <rect x="320" y="430" width="460" height="40" rx="6" fill="white" stroke="#374151"/>
  <text x="335" y="455" class="text-md">456 Oak Street</text>

  <text x="320" y="485" class="label">CITY</text>
  <rect x="320" y="495" width="200" height="40" rx="6" fill="white" stroke="#374151"/>
  <text x="335" y="520" class="text-md">Cleveland</text>

  <text x="540" y="485" class="label">STATE</text>
  <rect x="540" y="495" width="100" height="40" rx="6" fill="white" stroke="#374151"/>
  <text x="555" y="520" class="text-md">TN</text>

  <text x="660" y="485" class="label">ZIP</text>
  <rect x="660" y="495" width="120" height="40" rx="6" fill="white" stroke="#374151"/>
  <text x="675" y="520" class="text-md">37311</text>

  <rect x="570" y="555" width="100" height="36" rx="6" fill="white" stroke="#374151"/>
  <text x="620" y="578" text-anchor="middle" class="text-md">Cancel</text>

  <rect x="680" y="555" width="100" height="36" rx="6" fill="#6366f1"/>
  <text x="730" y="578" text-anchor="middle" fill="white" class="text-md">Save</text>

  <!-- ============================================ -->
  <!-- MAP PREVIEW -->
  <!-- ============================================ -->
  <rect x="830" y="200" width="300" height="400" rx="8" class="map-bg"/>

  <!-- Map grid -->
  <g stroke="#93c5fd" stroke-width="0.5" opacity="0.5">
    <line x1="830" y1="280" x2="1130" y2="280"/>
    <line x1="830" y1="360" x2="1130" y2="360"/>
    <line x1="830" y1="440" x2="1130" y2="440"/>
    <line x1="830" y1="520" x2="1130" y2="520"/>
    <line x1="905" y1="200" x2="905" y2="600"/>
    <line x1="980" y1="200" x2="980" y2="600"/>
    <line x1="1055" y1="200" x2="1055" y2="600"/>
  </g>

  <!-- Home marker on map -->
  <circle cx="980" cy="380" r="24" fill="#22c55e"/>
  <circle cx="980" cy="380" r="14" fill="white"/>
  <polygon points="980,368 971,380 989,380" fill="#22c55e"/>
  <rect x="975" y="378" width="10" height="10" fill="#22c55e"/>

  <!-- Map zoom controls -->
  <rect x="1085" y="220" width="32" height="60" rx="4" fill="white" stroke="#374151"/>
  <text x="1101" y="243" text-anchor="middle" class="text-md">+</text>
  <line x1="1090" y1="250" x2="1112" y2="250" stroke="#e5e7eb"/>
  <text x="1101" y="273" text-anchor="middle" class="text-md">-</text>

  <text x="980" y="560" text-anchor="middle" class="text-sm" fill="#6b7280">Your home location</text>

  <!-- ============================================ -->
  <!-- DISTANCE UPDATE NOTICE -->
  <!-- ============================================ -->
  <rect x="300" y="620" width="500" height="50" rx="6" fill="#fef3c7" stroke="#f59e0b"/>
  <text x="320" y="640" class="text-sm" fill="#92400e">Note: Updating your address will recalculate distances to all companies.</text>
  <text x="320" y="658" class="text-sm" fill="#92400e">This may take a few seconds for large lists.</text>

  <!-- ============================================ -->
  <!-- ANNOTATIONS -->
  <!-- ============================================ -->

  <!-- Settings nav annotation -->
  <rect x="40" y="720" width="240" height="50" rx="4" class="annotation-box"/>
  <text x="160" y="740" text-anchor="middle" class="annotation" font-weight="bold">SETTINGS NAV</text>
  <text x="50" y="760" class="annotation">Consistent across all settings pages</text>

  <!-- Current address annotation -->
  <rect x="820" y="620" width="180" height="80" rx="4" class="annotation-box"/>
  <text x="910" y="640" text-anchor="middle" class="annotation" font-weight="bold">MAP PREVIEW</text>
  <text x="830" y="660" class="annotation">- Shows current home</text>
  <text x="830" y="675" class="annotation">- Updates on save</text>
  <text x="830" y="690" class="annotation">- Draggable marker (future)</text>

  <!-- Edit form annotation -->
  <rect x="820" y="100" width="180" height="80" rx="4" class="annotation-box"/>
  <text x="910" y="120" text-anchor="middle" class="annotation" font-weight="bold">EDIT BEHAVIOR</text>
  <text x="830" y="140" class="annotation">- Click to expand form</text>
  <text x="830" y="155" class="annotation">- Pre-fills current address</text>
  <text x="830" y="170" class="annotation">- Cancel reverts changes</text>
  <path d="M 820,155 L 805,400" class="leader"/>

  <!-- Distance notice annotation -->
  <rect x="40" y="580" width="180" height="65" rx="4" class="annotation-box"/>
  <text x="130" y="600" text-anchor="middle" class="annotation" font-weight="bold">RECALC WARNING</text>
  <text x="50" y="620" class="annotation">Yellow = caution/info</text>
  <text x="50" y="635" class="annotation">Sets user expectation</text>
  <path d="M 220,620 L 300,640" class="leader"/>

</svg>