<svg xmlns="http://www.w3.org/2000/svg" viewBox="0 0 1200 1800" width="1200" height="1800">
  <defs>
    <style>
      .bg { fill: #f0f4f8; }
      .frame { fill: none; stroke: #374151; stroke-width: 1; }
      .fill-light { fill: #e5e7eb; stroke: #374151; stroke-width: 1; }
      .fill-white { fill: #ffffff; stroke: #374151; stroke-width: 1; }
      .annotation { fill: #6366f1; font-family: monospace; font-size: 10px; }
      .label { fill: #374151; font-family: monospace; font-size: 11px; }
      .heading { fill: #1f2937; font-family: system-ui, sans-serif; font-size: 14px; font-weight: bold; }
      .section-title { fill: #6366f1; font-family: monospace; font-size: 16px; font-weight: bold; }
      .text-sm { fill: #6b7280; font-family: system-ui, sans-serif; font-size: 10px; }
      .text-md { fill: #374151; font-family: system-ui, sans-serif; font-size: 12px; }
      .btn-primary { fill: #6366f1; stroke: #4f46e5; }
      .btn-secondary { fill: #ffffff; stroke: #374151; }
      .btn-ghost { fill: none; stroke: #9ca3af; stroke-dasharray: 2,2; }
      .btn-danger { fill: #fecaca; stroke: #ef4444; }
      .badge-green { fill: #dcfce7; stroke: #22c55e; }
      .badge-yellow { fill: #fef9c3; stroke: #eab308; }
      .badge-red { fill: #fee2e2; stroke: #ef4444; }
      .badge-blue { fill: #dbeafe; stroke: #3b82f6; }
      .badge-gray { fill: #f3f4f6; stroke: #9ca3af; }
      .marker-home { fill: #22c55e; }
      .marker-company { fill: #6366f1; }
      .marker-stop { fill: #3b82f6; }
      .route-line { stroke: #3b82f6; stroke-width: 3; fill: none; }
      .divider { stroke: #d1d5db; stroke-width: 1; }
    </style>
  </defs>

  <!-- Background -->
  <rect class="bg" width="1200" height="1800"/>

  <!-- Title -->
  <text x="600" y="40" text-anchor="middle" class="section-title" font-size="24">SPOKETOWORK COMPONENT LIBRARY</text>
  <text x="600" y="60" text-anchor="middle" class="annotation">Blueprint Reference - All Reusable UI Elements</text>

  <!-- ============================================ -->
  <!-- SECTION: TYPOGRAPHY -->
  <!-- ============================================ -->
  <text x="40" y="100" class="section-title">TYPOGRAPHY</text>
  <line x1="40" y1="110" x2="560" y2="110" class="divider"/>

  <g transform="translate(40, 130)">
    <text x="0" y="0" class="heading" font-size="24">Heading 1 (24px)</text>
    <text x="300" y="0" class="annotation">H1 - Page titles</text>

    <text x="0" y="35" class="heading" font-size="18">Heading 2 (18px)</text>
    <text x="300" y="35" class="annotation">H2 - Section headers</text>

    <text x="0" y="65" class="heading" font-size="14">Heading 3 (14px)</text>
    <text x="300" y="65" class="annotation">H3 - Card titles</text>

    <text x="0" y="95" class="text-md">Body Text (12px) - Main content</text>
    <text x="300" y="95" class="annotation">Body - Descriptions</text>

    <text x="0" y="120" class="text-sm">Small Text (10px) - Secondary</text>
    <text x="300" y="120" class="annotation">Caption - Metadata</text>

    <text x="0" y="145" class="label">LABEL (11px mono)</text>
    <text x="300" y="145" class="annotation">Labels - Form fields</text>
  </g>

  <!-- ============================================ -->
  <!-- SECTION: BUTTONS -->
  <!-- ============================================ -->
  <text x="620" y="100" class="section-title">BUTTONS</text>
  <line x1="620" y1="110" x2="1160" y2="110" class="divider"/>

  <g transform="translate(620, 130)">
    <!-- Primary -->
    <rect x="0" y="0" width="100" height="32" rx="4" class="btn-primary"/>
    <text x="50" y="20" text-anchor="middle" fill="white" class="text-md">Primary</text>
    <text x="120" y="20" class="annotation">Main actions</text>

    <!-- Secondary -->
    <rect x="0" y="45" width="100" height="32" rx="4" class="btn-secondary"/>
    <text x="50" y="65" text-anchor="middle" class="text-md">Secondary</text>
    <text x="120" y="65" class="annotation">Alt actions</text>

    <!-- Ghost -->
    <rect x="0" y="90" width="100" height="32" rx="4" class="btn-ghost"/>
    <text x="50" y="110" text-anchor="middle" fill="#6b7280" class="text-md">Ghost</text>
    <text x="120" y="110" class="annotation">Subtle actions</text>

    <!-- Danger -->
    <rect x="0" y="135" width="100" height="32" rx="4" class="btn-danger"/>
    <text x="50" y="155" text-anchor="middle" fill="#dc2626" class="text-md">Danger</text>
    <text x="120" y="155" class="annotation">Destructive</text>

    <!-- Button States -->
    <text x="280" y="20" class="label">STATES:</text>
    <rect x="280" y="30" width="80" height="28" rx="4" class="btn-primary"/>
    <text x="320" y="48" text-anchor="middle" fill="white" class="text-sm">Normal</text>

    <rect x="370" y="30" width="80" height="28" rx="4" fill="#4f46e5" stroke="#3730a3"/>
    <text x="410" y="48" text-anchor="middle" fill="white" class="text-sm">Hover</text>

    <rect x="460" y="30" width="80" height="28" rx="4" fill="#9ca3af" stroke="#6b7280"/>
    <text x="500" y="48" text-anchor="middle" fill="white" class="text-sm">Disabled</text>
  </g>

  <!-- ============================================ -->
  <!-- SECTION: FORM INPUTS -->
  <!-- ============================================ -->
  <text x="40" y="320" class="section-title">FORM INPUTS</text>
  <line x1="40" y1="330" x2="560" y2="330" class="divider"/>

  <g transform="translate(40, 350)">
    <!-- Text Input -->
    <text x="0" y="0" class="label">TEXT INPUT</text>
    <rect x="0" y="10" width="200" height="36" rx="4" class="fill-white"/>
    <text x="10" y="32" class="text-md" fill="#9ca3af">Placeholder text...</text>
    <text x="220" y="32" class="annotation">Single line text</text>

    <!-- Text Input Filled -->
    <text x="0" y="70" class="label">TEXT INPUT (FILLED)</text>
    <rect x="0" y="80" width="200" height="36" rx="4" class="fill-white"/>
    <text x="10" y="102" class="text-md">User input value</text>

    <!-- Select -->
    <text x="0" y="140" class="label">SELECT DROPDOWN</text>
    <rect x="0" y="150" width="200" height="36" rx="4" class="fill-white"/>
    <text x="10" y="172" class="text-md">Select option...</text>
    <polygon points="180,165 190,165 185,175" fill="#6b7280"/>
    <text x="220" y="172" class="annotation">Dropdown menu</text>

    <!-- Checkbox -->
    <text x="280" y="0" class="label">CHECKBOX</text>
    <rect x="280" y="15" width="18" height="18" rx="2" class="fill-white"/>
    <text x="305" y="28" class="text-md">Unchecked</text>
    <rect x="280" y="45" width="18" height="18" rx="2" class="btn-primary"/>
    <polyline points="284,54 288,58 294,48" fill="none" stroke="white" stroke-width="2"/>
    <text x="305" y="58" class="text-md">Checked</text>

    <!-- Radio -->
    <text x="420" y="0" class="label">RADIO</text>
    <circle cx="429" cy="23" r="9" class="fill-white"/>
    <text x="445" y="28" class="text-md">Option A</text>
    <circle cx="429" cy="53" r="9" class="fill-white"/>
    <circle cx="429" cy="53" r="5" class="btn-primary"/>
    <text x="445" y="58" class="text-md">Option B</text>
  </g>

  <!-- TextArea -->
  <g transform="translate(40, 540)">
    <text x="0" y="0" class="label">TEXTAREA</text>
    <rect x="0" y="10" width="300" height="80" rx="4" class="fill-white"/>
    <text x="10" y="32" class="text-md" fill="#9ca3af">Enter notes here...</text>
    <line x1="10" y1="45" x2="290" y2="45" stroke="#e5e7eb"/>
    <line x1="10" y1="60" x2="290" y2="60" stroke="#e5e7eb"/>
    <line x1="10" y1="75" x2="200" y2="75" stroke="#e5e7eb"/>
    <text x="320" y="50" class="annotation">Multi-line input</text>
  </g>

  <!-- ============================================ -->
  <!-- SECTION: STATUS BADGES -->
  <!-- ============================================ -->
  <text x="620" y="320" class="section-title">STATUS BADGES</text>
  <line x1="620" y1="330" x2="1160" y2="330" class="divider"/>

  <g transform="translate(620, 350)">
    <!-- Application Status -->
    <text x="0" y="0" class="label">APPLICATION STATUS</text>

    <rect x="0" y="15" width="90" height="24" rx="12" class="badge-gray"/>
    <text x="45" y="31" text-anchor="middle" class="text-sm">Researching</text>

    <rect x="100" y="15" width="70" height="24" rx="12" class="badge-blue"/>
    <text x="135" y="31" text-anchor="middle" class="text-sm">Applied</text>

    <rect x="180" y="15" width="90" height="24" rx="12" class="badge-yellow"/>
    <text x="225" y="31" text-anchor="middle" class="text-sm">Interviewing</text>

    <rect x="280" y="15" width="70" height="24" rx="12" class="badge-green"/>
    <text x="315" y="31" text-anchor="middle" class="text-sm">Offered</text>

    <rect x="360" y="15" width="70" height="24" rx="12" class="badge-red"/>
    <text x="395" y="31" text-anchor="middle" class="text-sm">Rejected</text>

    <!-- Distance Badges -->
    <text x="0" y="70" class="label">DISTANCE BADGES</text>

    <rect x="0" y="85" width="60" height="24" rx="4" class="badge-green"/>
    <text x="30" y="101" text-anchor="middle" class="text-sm">2.1 mi</text>
    <text x="70" y="101" class="annotation">&lt;3 miles</text>

    <rect x="140" y="85" width="60" height="24" rx="4" class="badge-yellow"/>
    <text x="170" y="101" text-anchor="middle" class="text-sm">4.5 mi</text>
    <text x="210" y="101" class="annotation">3-6 miles</text>

    <rect x="280" y="85" width="60" height="24" rx="4" class="badge-red"/>
    <text x="310" y="101" text-anchor="middle" class="text-sm">8.2 mi</text>
    <text x="350" y="101" class="annotation">&gt;6 miles</text>

    <!-- Priority Dots -->
    <text x="0" y="140" class="label">PRIORITY INDICATORS</text>
    <circle cx="10" cy="160" r="6" fill="#ef4444"/>
    <circle cx="30" cy="160" r="6" fill="#ef4444"/>
    <circle cx="50" cy="160" r="6" fill="#ef4444"/>
    <text x="70" y="164" class="text-sm">High (3 dots)</text>

    <circle cx="150" cy="160" r="6" fill="#eab308"/>
    <circle cx="170" cy="160" r="6" fill="#eab308"/>
    <text x="190" y="164" class="text-sm">Medium (2 dots)</text>

    <circle cx="290" cy="160" r="6" fill="#22c55e"/>
    <text x="310" y="164" class="text-sm">Low (1 dot)</text>
  </g>

  <!-- ============================================ -->
  <!-- SECTION: CARDS -->
  <!-- ============================================ -->
  <text x="40" y="680" class="section-title">CARDS</text>
  <line x1="40" y1="690" x2="1160" y2="690" class="divider"/>

  <!-- Company Card -->
  <g transform="translate(40, 710)">
    <text x="0" y="0" class="label">COMPANY CARD</text>
    <rect x="0" y="15" width="320" height="100" rx="8" class="fill-white"/>

    <!-- Card content -->
    <text x="15" y="40" class="heading">Life Care Centers</text>
    <text x="15" y="58" class="text-sm">123 Main St, Cleveland TN</text>

    <rect x="15" y="68" width="70" height="20" rx="10" class="badge-green"/>
    <text x="50" y="82" text-anchor="middle" class="text-sm">2.1 mi</text>

    <rect x="95" y="68" width="80" height="20" rx="10" class="badge-blue"/>
    <text x="135" y="82" text-anchor="middle" class="text-sm">Healthcare</text>

    <!-- Priority dots -->
    <circle cx="280" cy="40" r="5" fill="#ef4444"/>
    <circle cx="295" cy="40" r="5" fill="#ef4444"/>

    <text x="340" y="60" class="annotation">Company info card</text>
    <text x="340" y="75" class="annotation">Used in list + registry</text>
  </g>

  <!-- Route Card -->
  <g transform="translate(420, 710)">
    <text x="0" y="0" class="label">ROUTE CARD</text>
    <rect x="0" y="15" width="280" height="100" rx="8" class="fill-white"/>

    <text x="15" y="40" class="heading">Downtown Loop</text>
    <text x="15" y="58" class="text-sm">4 stops - 12.3 miles</text>
    <text x="15" y="75" class="text-sm" fill="#6b7280">Last used: Dec 26</text>

    <!-- Route preview dots -->
    <circle cx="230" cy="50" r="8" fill="#22c55e"/>
    <circle cx="250" cy="40" r="6" class="marker-stop"/>
    <circle cx="255" cy="60" r="6" class="marker-stop"/>
    <circle cx="240" cy="70" r="6" class="marker-stop"/>

    <text x="300" y="60" class="annotation">Saved route card</text>
  </g>

  <!-- Job Posting Card -->
  <g transform="translate(760, 710)">
    <text x="0" y="0" class="label">JOB POSTING CARD</text>
    <rect x="0" y="15" width="320" height="100" rx="8" class="fill-white"/>

    <text x="15" y="40" class="heading">CNA - Night Shift</text>
    <text x="15" y="58" class="text-sm">Life Care Centers</text>

    <rect x="15" y="68" width="50" height="20" rx="10" class="badge-green"/>
    <text x="40" y="82" text-anchor="middle" class="text-sm">Open</text>

    <text x="75" y="82" class="text-sm" fill="#6b7280">Posted 2 days ago</text>

    <text x="15" y="100" class="text-sm">11pm-7am - $15/hr</text>
  </g>

  <!-- ============================================ -->
  <!-- SECTION: MAP ELEMENTS -->
  <!-- ============================================ -->
  <text x="40" y="860" class="section-title">MAP ELEMENTS</text>
  <line x1="40" y1="870" x2="560" y2="870" class="divider"/>

  <g transform="translate(40, 890)">
    <!-- Home Marker -->
    <text x="0" y="0" class="label">HOME MARKER</text>
    <circle cx="25" cy="35" r="20" class="marker-home"/>
    <circle cx="25" cy="35" r="12" fill="white"/>
    <polygon points="25,23 17,33 33,33" fill="#22c55e"/>
    <rect x="21" y="32" width="8" height="8" fill="#22c55e"/>
    <text x="60" y="40" class="annotation">User's home location</text>

    <!-- Company Marker -->
    <text x="140" y="0" class="label">COMPANY MARKER</text>
    <circle cx="165" cy="35" r="18" class="marker-company"/>
    <rect x="157" y="27" width="16" height="12" rx="2" fill="white"/>
    <rect x="161" y="30" width="8" height="6" fill="#6366f1"/>
    <text x="200" y="40" class="annotation">Company location</text>

    <!-- Route Stop Marker -->
    <text x="300" y="0" class="label">ROUTE STOP</text>
    <circle cx="325" cy="35" r="16" class="marker-stop"/>
    <text x="325" y="40" text-anchor="middle" fill="white" font-size="14" font-weight="bold">1</text>
    <circle cx="355" cy="35" r="16" class="marker-stop"/>
    <text x="355" y="40" text-anchor="middle" fill="white" font-size="14" font-weight="bold">2</text>
    <circle cx="385" cy="35" r="16" class="marker-stop"/>
    <text x="385" y="40" text-anchor="middle" fill="white" font-size="14" font-weight="bold">3</text>
    <text x="415" y="40" class="annotation">Numbered stops</text>

    <!-- Route Line -->
    <text x="0" y="80" class="label">ROUTE PATH</text>
    <path d="M 20,110 Q 80,90 120,115 T 200,105 T 280,120" class="route-line"/>
    <text x="300" y="115" class="annotation">Bicycle route path</text>

    <!-- Map Attribution -->
    <text x="0" y="150" class="label">MAP ATTRIBUTION</text>
    <rect x="0" y="160" width="180" height="20" rx="2" fill="rgba(255,255,255,0.9)" stroke="#d1d5db"/>
    <text x="5" y="174" class="text-sm">© OpenStreetMap contributors</text>
  </g>

  <!-- ============================================ -->
  <!-- SECTION: NAVIGATION -->
  <!-- ============================================ -->
  <text x="620" y="860" class="section-title">NAVIGATION</text>
  <line x1="620" y1="870" x2="1160" y2="870" class="divider"/>

  <g transform="translate(620, 890)">
    <!-- Header -->
    <text x="0" y="0" class="label">HEADER BAR</text>
    <rect x="0" y="15" width="520" height="48" rx="0" class="fill-light"/>
    <circle cx="30" cy="39" r="16" fill="#6366f1"/>
    <text x="30" y="44" text-anchor="middle" fill="white" font-size="12" font-weight="bold">S</text>
    <text x="55" y="44" class="heading">SpokeToWork</text>

    <text x="200" y="44" class="text-md">Companies</text>
    <text x="280" y="44" class="text-md">Routes</text>
    <text x="340" y="44" class="text-md">Registry</text>

    <circle cx="480" cy="39" r="16" class="fill-white"/>
    <text x="480" y="44" text-anchor="middle" class="text-sm">JD</text>

    <!-- Mobile Bottom Nav -->
    <text x="0" y="90" class="label">MOBILE BOTTOM NAV</text>
    <rect x="0" y="105" width="375" height="56" rx="0" class="fill-light"/>

    <g transform="translate(47, 115)">
      <rect x="-20" y="0" width="40" height="40" rx="4" fill="none"/>
      <rect x="-8" y="8" width="16" height="12" rx="2" fill="#6366f1"/>
      <text x="0" y="35" text-anchor="middle" class="text-sm" fill="#6366f1">List</text>
    </g>
    <g transform="translate(140, 115)">
      <circle cx="0" cy="14" r="10" fill="none" stroke="#6b7280" stroke-width="2"/>
      <text x="0" y="35" text-anchor="middle" class="text-sm" fill="#6b7280">Map</text>
    </g>
    <g transform="translate(233, 115)">
      <path d="M-8,8 L0,20 L8,8 L0,5 Z" fill="none" stroke="#6b7280" stroke-width="2"/>
      <text x="0" y="35" text-anchor="middle" class="text-sm" fill="#6b7280">Routes</text>
    </g>
    <g transform="translate(328, 115)">
      <circle cx="0" cy="12" r="10" fill="none" stroke="#6b7280" stroke-width="2"/>
      <text x="0" y="35" text-anchor="middle" class="text-sm" fill="#6b7280">Profile</text>
    </g>
  </g>

  <!-- ============================================ -->
  <!-- SECTION: OVERLAYS -->
  <!-- ============================================ -->
  <text x="40" y="1100" class="section-title">OVERLAYS</text>
  <line x1="40" y1="1110" x2="1160" y2="1110" class="divider"/>

  <!-- Modal -->
  <g transform="translate(40, 1130)">
    <text x="0" y="0" class="label">MODAL</text>
    <rect x="0" y="15" width="350" height="180" rx="0" fill="rgba(0,0,0,0.5)"/>
    <rect x="50" y="35" width="250" height="140" rx="8" class="fill-white"/>

    <text x="70" y="60" class="heading">Modal Title</text>
    <line x1="70" y1="70" x2="280" y2="70" class="divider"/>
    <text x="70" y="90" class="text-md">Modal content goes here.</text>
    <text x="70" y="108" class="text-md">Centered overlay for forms.</text>

    <rect x="160" y="130" width="70" height="28" rx="4" class="btn-secondary"/>
    <text x="195" y="148" text-anchor="middle" class="text-sm">Cancel</text>
    <rect x="240" y="130" width="70" height="28" rx="4" class="btn-primary"/>
    <text x="275" y="148" text-anchor="middle" fill="white" class="text-sm">Save</text>

    <!-- Close X -->
    <text x="275" y="55" fill="#6b7280" font-size="18">x</text>

    <text x="370" y="100" class="annotation">Centered modal</text>
    <text x="370" y="115" class="annotation">For destructive/edit actions</text>
    <text x="370" y="130" class="annotation">Dims background</text>
  </g>

  <!-- Slide Panel -->
  <g transform="translate(620, 1130)">
    <text x="0" y="0" class="label">SLIDE PANEL</text>
    <rect x="0" y="15" width="400" height="180" rx="0" class="fill-light"/>

    <!-- Main content area -->
    <rect x="0" y="15" width="200" height="180" fill="#d1d5db"/>
    <text x="100" y="105" text-anchor="middle" class="text-sm" fill="#6b7280">[Main View]</text>

    <!-- Panel -->
    <rect x="200" y="15" width="200" height="180" rx="0" class="fill-white"/>
    <text x="220" y="45" class="heading">Detail Panel</text>
    <line x1="220" y1="55" x2="380" y2="55" class="divider"/>
    <text x="220" y="75" class="text-md">Slides from right</text>
    <text x="220" y="93" class="text-md">Non-destructive view</text>
    <text x="220" y="111" class="text-md">Close with X or click out</text>

    <text x="375" y="40" fill="#6b7280" font-size="16">x</text>

    <!-- Arrow showing slide -->
    <path d="M 420,100 L 450,100" stroke="#6366f1" stroke-width="2" fill="none"/>
    <polygon points="450,95 460,100 450,105" fill="#6366f1"/>
    <text x="420" y="120" class="annotation">Slides in</text>
  </g>

  <!-- Tooltip -->
  <g transform="translate(40, 1340)">
    <text x="0" y="0" class="label">TOOLTIP</text>
    <rect x="50" y="15" width="120" height="30" rx="4" fill="#1f2937"/>
    <polygon points="110,45 100,55 120,55" fill="#1f2937"/>
    <text x="110" y="35" text-anchor="middle" fill="white" class="text-sm">Helpful hint</text>

    <circle cx="110" cy="75" r="15" class="fill-light"/>
    <text x="110" y="80" text-anchor="middle" class="text-sm">?</text>

    <text x="200" y="45" class="annotation">Hover tooltip</text>
    <text x="200" y="60" class="annotation">Points to trigger element</text>
  </g>

  <!-- Dropdown -->
  <g transform="translate(350, 1340)">
    <text x="0" y="0" class="label">DROPDOWN MENU</text>
    <rect x="0" y="15" width="150" height="32" rx="4" class="fill-white"/>
    <text x="15" y="35" class="text-md">Select option</text>
    <polygon points="125,28 135,28 130,36" fill="#6b7280"/>

    <rect x="0" y="50" width="150" height="90" rx="4" class="fill-white"/>
    <rect x="5" y="55" width="140" height="24" rx="2" fill="#e5e7eb"/>
    <text x="15" y="72" class="text-md">Option One</text>
    <text x="15" y="96" class="text-md">Option Two</text>
    <text x="15" y="120" class="text-md">Option Three</text>

    <text x="170" y="80" class="annotation">Dropdown menu</text>
  </g>

  <!-- Filter Chips -->
  <g transform="translate(620, 1340)">
    <text x="0" y="0" class="label">FILTER CHIPS</text>

    <rect x="0" y="15" width="90" height="28" rx="14" class="badge-blue"/>
    <text x="35" y="33" class="text-sm">Healthcare</text>
    <text x="75" y="33" fill="#3b82f6" font-size="12">x</text>

    <rect x="100" y="15" width="80" height="28" rx="14" class="fill-light"/>
    <text x="130" y="33" text-anchor="middle" class="text-sm">&lt;5 miles</text>

    <rect x="190" y="15" width="90" height="28" rx="14" class="fill-light"/>
    <text x="200" y="33" class="text-sm">+ Add Filter</text>

    <text x="300" y="30" class="annotation">Active filters as chips</text>
    <text x="300" y="45" class="annotation">X to remove, + to add</text>
  </g>

  <!-- ============================================ -->
  <!-- SECTION: STATES &amp; INDICATORS -->
  <!-- ============================================ -->
  <text x="40" y="1480" class="section-title">STATES &amp; INDICATORS</text>
  <line x1="40" y1="1490" x2="1160" y2="1490" class="divider"/>

  <g transform="translate(40, 1510)">
    <!-- Loading -->
    <text x="0" y="0" class="label">LOADING</text>
    <circle cx="20" cy="30" r="12" fill="none" stroke="#6366f1" stroke-width="3" stroke-dasharray="50,20"/>
    <text x="50" y="35" class="annotation">Spinner</text>

    <!-- Empty State -->
    <text x="140" y="0" class="label">EMPTY STATE</text>
    <rect x="140" y="15" width="200" height="80" rx="8" class="fill-light" stroke-dasharray="4,4"/>
    <text x="240" y="50" text-anchor="middle" class="text-md" fill="#6b7280">No companies yet</text>
    <text x="240" y="70" text-anchor="middle" class="text-sm" fill="#6b7280">Add your first company</text>

    <!-- Error State -->
    <text x="400" y="0" class="label">ERROR STATE</text>
    <rect x="400" y="15" width="200" height="50" rx="4" class="badge-red"/>
    <text x="420" y="35" fill="#dc2626" class="text-md">Something went wrong</text>
    <text x="420" y="52" class="text-sm" fill="#dc2626">Please try again</text>

    <!-- Success State -->
    <text x="660" y="0" class="label">SUCCESS STATE</text>
    <rect x="660" y="15" width="200" height="50" rx="4" class="badge-green"/>
    <circle cx="680" cy="40" r="10" fill="#22c55e"/>
    <polyline points="675,40 679,44 686,36" fill="none" stroke="white" stroke-width="2"/>
    <text x="700" y="45" fill="#166534" class="text-md">Saved successfully</text>
  </g>

  <!-- ============================================ -->
  <!-- SECTION: SPACING REFERENCE -->
  <!-- ============================================ -->
  <text x="40" y="1640" class="section-title">SPACING SCALE</text>
  <line x1="40" y1="1650" x2="560" y2="1650" class="divider"/>

  <g transform="translate(40, 1670)">
    <rect x="0" y="0" width="4" height="20" fill="#6366f1"/>
    <text x="15" y="14" class="label">4px (xs)</text>

    <rect x="100" y="0" width="8" height="20" fill="#6366f1"/>
    <text x="115" y="14" class="label">8px (sm)</text>

    <rect x="200" y="0" width="16" height="20" fill="#6366f1"/>
    <text x="225" y="14" class="label">16px (md)</text>

    <rect x="320" y="0" width="24" height="20" fill="#6366f1"/>
    <text x="355" y="14" class="label">24px (lg)</text>

    <rect x="460" y="0" width="32" height="20" fill="#6366f1"/>
    <text x="505" y="14" class="label">32px (xl)</text>
  </g>

  <!-- Color Reference -->
  <text x="620" y="1640" class="section-title">COLOR REFERENCE</text>
  <line x1="620" y1="1650" x2="1160" y2="1650" class="divider"/>

  <g transform="translate(620, 1670)">
    <rect x="0" y="0" width="30" height="30" rx="4" fill="#6366f1"/>
    <text x="40" y="20" class="label">Indigo #6366f1</text>
    <text x="150" y="20" class="annotation">Primary</text>

    <rect x="210" y="0" width="30" height="30" rx="4" fill="#22c55e"/>
    <text x="250" y="20" class="label">Green #22c55e</text>
    <text x="360" y="20" class="annotation">Success/Home</text>

    <rect x="0" y="40" width="30" height="30" rx="4" fill="#eab308"/>
    <text x="40" y="60" class="label">Yellow #eab308</text>
    <text x="150" y="60" class="annotation">Warning</text>

    <rect x="210" y="40" width="30" height="30" rx="4" fill="#ef4444"/>
    <text x="250" y="60" class="label">Red #ef4444</text>
    <text x="360" y="60" class="annotation">Danger</text>

    <rect x="0" y="80" width="30" height="30" rx="4" fill="#3b82f6"/>
    <text x="40" y="100" class="label">Blue #3b82f6</text>
    <text x="150" y="100" class="annotation">Routes/Info</text>

    <rect x="210" y="80" width="30" height="30" rx="4" fill="#374151"/>
    <text x="250" y="100" class="label">Gray #374151</text>
    <text x="360" y="100" class="annotation">Text</text>
  </g>

  <!-- Footer -->
  <text x="600" y="1790" text-anchor="middle" class="annotation">SpokeToWork Component Library v1.0 - Blueprint Reference</text>
</svg>